<svg xmlns="http://www.w3.org/2000/svg" width="40" height="40" viewBox="0 0 40 40">
  <metadata><?xpacket begin="﻿" id="W5M0MpCehiHzreSzNTczkc9d"?>
<x:xmpmeta xmlns:x="adobe:ns:meta/" x:xmptk="Adobe XMP Core 5.6-c138 79.159824, 2016/09/14-01:09:01        ">
   <rdf:RDF xmlns:rdf="http://www.w3.org/1999/02/22-rdf-syntax-ns#">
      <rdf:Description rdf:about=""/>
   </rdf:RDF>
</x:xmpmeta>
                                                                                                    
                                                                                                    
                                                                                                    
                                                                                                    
                                                                                                    
                                                                                                    
                                                                                                    
                                                                                                    
                                                                                                    
                                                                                                    
                                                                                                    
                                                                                                    
                                                                                                    
                                                                                                    
                                                                                                    
                                                                                                    
                                                                                                    
                                                                                                    
                                                                                                    
                                                                                                    
                           
<?xpacket end="w"?></metadata>
<defs>
    <style>
      .cls-1 {
        fill: #5399ea;
        fill-rule: evenodd;
      }
    </style>
  </defs>
  <path class="cls-1" d="M173.2,1153.05h3.141a1.055,1.055,0,0,0,0-2.11H173.2A1.055,1.055,0,0,0,173.2,1153.05Zm-11.15-13.26v-3.14a1.053,1.053,0,0,0-2.105,0v3.14A1.053,1.053,0,1,0,162.049,1139.79ZM161,1169.89A17.9,17.9,0,1,1,178.889,1152a1.053,1.053,0,0,0,2.1,0,20,20,0,1,0-20,19.99A1.05,1.05,0,1,0,161,1169.89Zm-10.089-24.64a1.05,1.05,0,0,0,.291,1.46l9.213,6.16,0.052,0.03,0.046,0.03a1.645,1.645,0,0,0,.212.08c0.011,0,.022.01,0.033,0.01a0.988,0.988,0,0,0,.241.03h0a0.939,0.939,0,0,0,.234-0.03h0.023a1.605,1.605,0,0,0,.209-0.08,0.068,0.068,0,0,1,.037-0.02c0.013-.01.026-0.01,0.039-0.02l11.134-6.71a1.051,1.051,0,0,0-1.087-1.8l-10.561,6.36-8.658-5.79A1.058,1.058,0,0,0,150.908,1145.25Zm-5.254,5.69a1.055,1.055,0,0,0,0,2.11h3.14a1.055,1.055,0,0,0,0-2.11h-3.14Zm24.547,15.35a1.051,1.051,0,0,0-1.052,1.05v0.91h-0.573v-0.91a1.053,1.053,0,0,0-2.1,0v3.6a1.053,1.053,0,0,0,2.1,0v-0.58h0.573v0.58a1.053,1.053,0,0,0,2.1,0v-3.6A1.052,1.052,0,0,0,170.2,1166.29Zm10.086,0.22a3.515,3.515,0,0,0-2.409,0,1.8,1.8,0,0,0-.934,1.07,1.828,1.828,0,0,0,.121,1.52,2.084,2.084,0,0,0,.739.75,1.053,1.053,0,0,0-.085,2.09,4.982,4.982,0,0,0,.735.06,2.866,2.866,0,0,0,1.681-.46,1.7,1.7,0,0,0,.686-1.14,1.894,1.894,0,0,0-.359-1.47,2.022,2.022,0,0,0-.39-0.38A1.053,1.053,0,0,0,180.287,1166.51ZM161,1163.15a1.051,1.051,0,0,0-1.053,1.05v3.14a1.053,1.053,0,0,0,2.105,0v-3.14A1.051,1.051,0,0,0,161,1163.15Zm13.285,3.14h-1.111a0.425,0.425,0,0,0-.113.01,0.432,0.432,0,0,0-.113-0.01,1.051,1.051,0,0,0-1.053,1.05v3.5a1.05,1.05,0,0,0,2.1.09l0.171,0.42a1.053,1.053,0,0,0,.972.64,0.97,0.97,0,0,0,.405-0.08,1.046,1.046,0,0,0,.566-1.37l-0.294-.71A2.1,2.1,0,0,0,174.282,1166.29Zm-1.636-2.71a1.06,1.06,0,0,0-1.052-1.06h-2.056a5.074,5.074,0,0,1,.453-0.32c1.787-1.1,2.655-2.24,2.655-3.5a2.768,2.768,0,0,0-2.858-2.99,2.847,2.847,0,0,0-3.073,2.68,1.053,1.053,0,0,0,2.1.14,0.734,0.734,0,0,1,.875-0.72,0.725,0.725,0,0,1,.85.89c0,0.43-.633,1.08-1.651,1.71a4.987,4.987,0,0,0-2.336,2.96,1.058,1.058,0,0,0,1.032,1.26h4.008A1.051,1.051,0,0,0,172.646,1163.58Zm7.3-.96h-0.5v-5.86a1.055,1.055,0,0,0-.768-1.02,1.042,1.042,0,0,0-1.184.47l-4.217,6.92a1.045,1.045,0,0,0-.018,1.06,1.058,1.058,0,0,0,.917.54h5.774A1.055,1.055,0,0,0,179.942,1162.62Zm-2.609,0h-1.291l1.291-2.11v2.11Z" transform="translate(-141 -1132)"/>
</svg>
