<svg xmlns="http://www.w3.org/2000/svg" width="36" height="40" viewBox="0 0 36 40">
  <metadata><?xpacket begin="﻿" id="W5M0MpCehiHzreSzNTczkc9d"?>
<x:xmpmeta xmlns:x="adobe:ns:meta/" x:xmptk="Adobe XMP Core 5.6-c138 79.159824, 2016/09/14-01:09:01        ">
   <rdf:RDF xmlns:rdf="http://www.w3.org/1999/02/22-rdf-syntax-ns#">
      <rdf:Description rdf:about=""/>
   </rdf:RDF>
</x:xmpmeta>
                                                                                                    
                                                                                                    
                                                                                                    
                                                                                                    
                                                                                                    
                                                                                                    
                                                                                                    
                                                                                                    
                                                                                                    
                                                                                                    
                                                                                                    
                                                                                                    
                                                                                                    
                                                                                                    
                                                                                                    
                                                                                                    
                                                                                                    
                                                                                                    
                                                                                                    
                                                                                                    
                           
<?xpacket end="w"?></metadata>
<defs>
    <style>
      .cls-1 {
        fill: #202121;
        fill-rule: evenodd;
      }
    </style>
  </defs>
  <path class="cls-1" d="M790.727,1480.52a1.29,1.29,0,1,0,1.258,1.29A1.269,1.269,0,0,0,790.727,1480.52Zm1.575,7.01a1.057,1.057,0,0,0,1.042,1.07h2.083v2.14a1.042,1.042,0,1,0,2.084,0v-2.14H799.6a1.065,1.065,0,0,0,0-2.13h-2.084v-2.14a1.042,1.042,0,1,0-2.084,0v2.14h-2.083A1.048,1.048,0,0,0,792.3,1487.53Zm12.7,4.04a1.023,1.023,0,0,0,1.44-.32l6.6-10.5a2.276,2.276,0,0,1,1.447-1.02,2.156,2.156,0,0,1,1.7.34,2.436,2.436,0,0,1,.651,3.31l-4.259,7.01a1.081,1.081,0,0,0,.332,1.47,1.015,1.015,0,0,0,.551.16,1.041,1.041,0,0,0,.884-0.5l4.251-6.99a4.629,4.629,0,0,0-1.26-6.25,4.2,4.2,0,0,0-3.28-.64,4.3,4.3,0,0,0-2.771,1.95l-6.6,10.51A1.077,1.077,0,0,0,805,1491.57Zm-4.651-12.39H801.3v0.97a1.042,1.042,0,1,0,2.083,0v-0.97h0.947a1.07,1.07,0,0,0,0-2.14h-0.947v-0.97a1.042,1.042,0,1,0-2.083,0v0.97h-0.948A1.07,1.07,0,0,0,800.352,1479.18Zm-7.157,1.39a1.3,1.3,0,1,0-1.258-1.3A1.278,1.278,0,0,0,793.2,1480.57Zm-2.468-2.54a1.29,1.29,0,1,0-1.258-1.29A1.269,1.269,0,0,0,790.727,1478.03Zm24.8,21.26a1.048,1.048,0,0,0-1.042-1.06H789.516a1.065,1.065,0,0,0,0,2.13h24.968A1.057,1.057,0,0,0,815.526,1499.29Zm3.432-5.68H785.042a1.057,1.057,0,0,0-1.042,1.07,16.45,16.45,0,0,0,10.666,15.5v3.75a1.057,1.057,0,0,0,1.042,1.07h8.753a1.07,1.07,0,0,0,0-2.14H796.75v-3.46a1.059,1.059,0,0,0-.75-1.02,14.233,14.233,0,0,1-9.877-12.63h31.754A14.233,14.233,0,0,1,808,1508.38a1.059,1.059,0,0,0-.75,1.02v4.53a1.042,1.042,0,1,0,2.084,0v-3.75A16.45,16.45,0,0,0,820,1494.68,1.057,1.057,0,0,0,818.958,1493.61Zm-30.7-13.04a1.3,1.3,0,1,0-1.258-1.3A1.278,1.278,0,0,0,788.26,1480.57Zm11.366,29.88h4.835a1.07,1.07,0,0,0,0-2.14h-4.835A1.07,1.07,0,0,0,799.626,1510.45Z" transform="translate(-784 -1475)"/>
</svg>
