<svg xmlns="http://www.w3.org/2000/svg" width="22" height="40" viewBox="0 0 22 40">
  <metadata><?xpacket begin="﻿" id="W5M0MpCehiHzreSzNTczkc9d"?>
<x:xmpmeta xmlns:x="adobe:ns:meta/" x:xmptk="Adobe XMP Core 5.6-c138 79.159824, 2016/09/14-01:09:01        ">
   <rdf:RDF xmlns:rdf="http://www.w3.org/1999/02/22-rdf-syntax-ns#">
      <rdf:Description rdf:about=""/>
   </rdf:RDF>
</x:xmpmeta>
                                                                                                    
                                                                                                    
                                                                                                    
                                                                                                    
                                                                                                    
                                                                                                    
                                                                                                    
                                                                                                    
                                                                                                    
                                                                                                    
                                                                                                    
                                                                                                    
                                                                                                    
                                                                                                    
                                                                                                    
                                                                                                    
                                                                                                    
                                                                                                    
                                                                                                    
                                                                                                    
                           
<?xpacket end="w"?></metadata>
<defs>
    <style>
      .cls-1 {
        fill: #202121;
        fill-rule: evenodd;
      }
    </style>
  </defs>
  <path class="cls-1" d="M1446.06,1494.22h-11.87a1.05,1.05,0,0,0,0,2.1h11.87A1.05,1.05,0,0,0,1446.06,1494.22Zm-0.65-8.29h-10.83a5.623,5.623,0,0,0-5.58,5.65v17.77a5.63,5.63,0,0,0,5.58,5.65h10.83a5.623,5.623,0,0,0,5.58-5.65v-17.77A5.617,5.617,0,0,0,1445.41,1485.93Zm3.49,23.42a3.517,3.517,0,0,1-3.49,3.54h-10.83a3.523,3.523,0,0,1-3.49-3.54v-17.77a3.523,3.523,0,0,1,3.49-3.54h10.83a3.517,3.517,0,0,1,3.49,3.54v17.77Zm-2.84-3.55h-11.87a1.055,1.055,0,0,0,0,2.11h11.87A1.055,1.055,0,0,0,1446.06,1505.8Zm-2.75-30.8h-6.92a1.05,1.05,0,0,0,0,2.1h2.56v3.29h-2.1a1.058,1.058,0,0,0-1.05,1.06v2.39a1.045,1.045,0,1,0,2.09,0v-1.34h4.21v1.34a1.045,1.045,0,1,0,2.09,0v-2.39a1.058,1.058,0,0,0-1.05-1.06h-2.1v-3.29h2.27A1.05,1.05,0,1,0,1443.31,1475Z" transform="translate(-1429 -1475)"/>
</svg>
