<svg xmlns="http://www.w3.org/2000/svg" width="34" height="7" viewBox="0 0 34 7">
  <metadata><?xpacket begin="﻿" id="W5M0MpCehiHzreSzNTczkc9d"?>
<x:xmpmeta xmlns:x="adobe:ns:meta/" x:xmptk="Adobe XMP Core 5.6-c138 79.159824, 2016/09/14-01:09:01        ">
   <rdf:RDF xmlns:rdf="http://www.w3.org/1999/02/22-rdf-syntax-ns#">
      <rdf:Description rdf:about=""/>
   </rdf:RDF>
</x:xmpmeta>
                                                                                                    
                                                                                                    
                                                                                                    
                                                                                                    
                                                                                                    
                                                                                                    
                                                                                                    
                                                                                                    
                                                                                                    
                                                                                                    
                                                                                                    
                                                                                                    
                                                                                                    
                                                                                                    
                                                                                                    
                                                                                                    
                                                                                                    
                                                                                                    
                                                                                                    
                                                                                                    
                           
<?xpacket end="w"?></metadata>
<defs>
    <style>
      .cls-1 {
        fill: #fff;
        fill-rule: evenodd;
      }
    </style>
  </defs>
  <path id="Rectangle_58_copy_15" data-name="Rectangle 58 copy 15" class="cls-1" d="M526,1688h30v1H526v-1Zm30-2h1v1h-1v-1Zm0-1h1v1h-1v-1Zm0,2h1v1h-1v-1Zm0,1h1v1h-1v-1Zm0,1h1v1h-1v-1Zm0,1h1v1h-1v-1Zm1-1h1v1h-1v-1Zm0-1h1v1h-1v-1Zm0-1h1v1h-1v-1Zm0-1h1v1h-1v-1Zm1,1h1v1h-1v-1Zm0,1h1v1h-1v-1Zm-1,2h1v1h-1v-1Zm-1,1h1v1h-1v-1Zm2-2h1v1h-1v-1Zm1-1h1v1h-1v-1Z" transform="translate(-526 -1685)"/>
</svg>
