<svg xmlns="http://www.w3.org/2000/svg" width="21" height="17" viewBox="0 0 21 17">
  <metadata><?xpacket begin="﻿" id="W5M0MpCehiHzreSzNTczkc9d"?>
<x:xmpmeta xmlns:x="adobe:ns:meta/" x:xmptk="Adobe XMP Core 5.6-c138 79.159824, 2016/09/14-01:09:01        ">
   <rdf:RDF xmlns:rdf="http://www.w3.org/1999/02/22-rdf-syntax-ns#">
      <rdf:Description rdf:about=""/>
   </rdf:RDF>
</x:xmpmeta>
                                                                                                    
                                                                                                    
                                                                                                    
                                                                                                    
                                                                                                    
                                                                                                    
                                                                                                    
                                                                                                    
                                                                                                    
                                                                                                    
                                                                                                    
                                                                                                    
                                                                                                    
                                                                                                    
                                                                                                    
                                                                                                    
                                                                                                    
                                                                                                    
                                                                                                    
                                                                                                    
                           
<?xpacket end="w"?></metadata>
<defs>
    <style>
      .cls-1 {
        fill: #202121;
        fill-rule: evenodd;
      }
    </style>
  </defs>
  <path id="Фигура_1" data-name="Фигура 1" class="cls-1" d="M1626.6,74.051a2.294,2.294,0,0,1-3.14.557l-2.28-1.257a2.157,2.157,0,0,1-.97-1.885,8.384,8.384,0,0,1-10.67,1.11,7.968,7.968,0,0,1-3.41-5.145,7.8,7.8,0,0,1,1.33-5.988,8.353,8.353,0,0,1,11.42-2.026,7.9,7.9,0,0,1,2.71,10.1,2.305,2.305,0,0,1,2.16.218l2.28,1.257A2.169,2.169,0,0,1,1626.6,74.051ZM1619.84,65a5.493,5.493,0,0,0-2.37-3.587,5.832,5.832,0,0,0-7.97,1.411,5.506,5.506,0,0,0,1.45,7.763,5.831,5.831,0,0,0,7.97-1.411A5.4,5.4,0,0,0,1619.84,65Z" transform="translate(-1606 -58)"/>
</svg>
