<svg xmlns="http://www.w3.org/2000/svg" width="40" height="40" viewBox="0 0 40 40">
  <metadata><?xpacket begin="﻿" id="W5M0MpCehiHzreSzNTczkc9d"?>
<x:xmpmeta xmlns:x="adobe:ns:meta/" x:xmptk="Adobe XMP Core 5.6-c138 79.159824, 2016/09/14-01:09:01        ">
   <rdf:RDF xmlns:rdf="http://www.w3.org/1999/02/22-rdf-syntax-ns#">
      <rdf:Description rdf:about=""/>
   </rdf:RDF>
</x:xmpmeta>
                                                                                                    
                                                                                                    
                                                                                                    
                                                                                                    
                                                                                                    
                                                                                                    
                                                                                                    
                                                                                                    
                                                                                                    
                                                                                                    
                                                                                                    
                                                                                                    
                                                                                                    
                                                                                                    
                                                                                                    
                                                                                                    
                                                                                                    
                                                                                                    
                                                                                                    
                                                                                                    
                           
<?xpacket end="w"?></metadata>
<defs>
    <style>
      .cls-1 {
        fill: #5399ea;
        fill-rule: evenodd;
      }
    </style>
  </defs>
  <path class="cls-1" d="M497.841,1144.84a1.062,1.062,0,0,0-.623,1.36,17.563,17.563,0,1,1-10.416-10.41,1.04,1.04,0,0,0,1.352-.62,1.051,1.051,0,0,0-.622-1.35,19.681,19.681,0,1,0,11.662,11.65A1.055,1.055,0,0,0,497.841,1144.84Zm-18.106,3.21a1.051,1.051,0,1,0-.467-2.05,6.466,6.466,0,1,0,7.776,7.6,1.053,1.053,0,0,0-2.063-.42A4.363,4.363,0,1,1,479.735,1148.05Zm20.354-11.03a3.8,3.8,0,0,0-1.581-.98l1.61-1.6a1.051,1.051,0,1,0-1.482-1.49l-1.642,1.62a3.95,3.95,0,0,0-1.008-1.65,3.6,3.6,0,0,0-3.113-.87c-3.96.51-4.4,8.51-4.444,11.03l-8.522,8.52a1.054,1.054,0,0,0,0,1.49,1.049,1.049,0,0,0,1.489,0l8.522-8.52c2.521-.04,10.526-0.48,11.043-4.44h0A3.628,3.628,0,0,0,500.089,1137.02Zm-6.943-2.89a2.7,2.7,0,0,1,.388-0.02,1.327,1.327,0,0,1,1,.33,2.963,2.963,0,0,1,.651,1.92l-2.81,2.78-0.035.03-1.677,1.68C490.973,1137.61,491.817,1134.31,493.146,1134.13Zm5.726,5.73c-0.173,1.32-3.474,2.17-6.718,2.48l1.2-1.21h0.009l3.336-3.31a2.971,2.971,0,0,1,1.856.64A1.541,1.541,0,0,1,498.872,1139.86Zm-13.991,2.36a1.055,1.055,0,0,0,.806-1.95,13.02,13.02,0,1,0,8.04,12.03,12.891,12.891,0,0,0-1.024-5.06,1.053,1.053,0,0,0-1.94.82,10.8,10.8,0,0,1,.858,4.24A10.915,10.915,0,1,1,484.881,1142.22Z" transform="translate(-461 -1132)"/>
</svg>
