<svg xmlns="http://www.w3.org/2000/svg" width="40" height="40" viewBox="0 0 40 40">
  <metadata><?xpacket begin="﻿" id="W5M0MpCehiHzreSzNTczkc9d"?>
<x:xmpmeta xmlns:x="adobe:ns:meta/" x:xmptk="Adobe XMP Core 5.6-c138 79.159824, 2016/09/14-01:09:01        ">
   <rdf:RDF xmlns:rdf="http://www.w3.org/1999/02/22-rdf-syntax-ns#">
      <rdf:Description rdf:about=""/>
   </rdf:RDF>
</x:xmpmeta>
                                                                                                    
                                                                                                    
                                                                                                    
                                                                                                    
                                                                                                    
                                                                                                    
                                                                                                    
                                                                                                    
                                                                                                    
                                                                                                    
                                                                                                    
                                                                                                    
                                                                                                    
                                                                                                    
                                                                                                    
                                                                                                    
                                                                                                    
                                                                                                    
                                                                                                    
                                                                                                    
                           
<?xpacket end="w"?></metadata>
<defs>
    <style>
      .cls-1 {
        fill: #202121;
        fill-rule: evenodd;
      }
    </style>
  </defs>
  <path class="cls-1" d="M1131.58,1483.45a1.47,1.47,0,1,0-1.48-1.47A1.472,1.472,0,0,0,1131.58,1483.45Zm8.33,5.02a1.053,1.053,0,1,0-1.99.69,18.084,18.084,0,0,1,.94,4.79h-3.2a1.05,1.05,0,0,0,0,2.1h3.2a17.836,17.836,0,0,1-3.4,9.47,21.346,21.346,0,0,0-3.97-1.85,31.49,31.49,0,0,0,.94-5.02,1.051,1.051,0,0,0-2.09-.22,27.917,27.917,0,0,1-.87,4.61,32.548,32.548,0,0,0-7.42-1.06v-5.93h4.81a1.05,1.05,0,1,0,0-2.1h-4.81v-6.08c0.4-.01.8-0.03,1.2-0.05a1.052,1.052,0,0,0,.98-1.12,1.04,1.04,0,0,0-1.12-.98c-0.35.02-.7,0.03-1.06,0.05v-8.63c0.47,0.02.94,0.07,1.4,0.13a1.055,1.055,0,1,0,.29-2.09,20.9,20.9,0,0,0-2.74-.18,20.02,20.02,0,0,0-20,20h0a20,20,0,0,0,40,0h0A20.063,20.063,0,0,0,1139.91,1488.47Zm-25.42-10.13a18.558,18.558,0,0,0-3.32,5.85,20.3,20.3,0,0,1-3.19-1.45A17.881,17.881,0,0,1,1114.49,1478.34Zm-7.88,6.04a21.638,21.638,0,0,0,3.91,1.81,32.749,32.749,0,0,0-1.13,7.76h-6.25A17.767,17.767,0,0,1,1106.61,1484.38Zm-0.07,21.14a17.671,17.671,0,0,1-3.4-9.47h6.25a32.333,32.333,0,0,0,1.1,7.63A21.13,21.13,0,0,0,1106.54,1505.52Zm1.35,1.64a20.411,20.411,0,0,1,3.23-1.48,18.629,18.629,0,0,0,3.37,5.98A17.929,17.929,0,0,1,1107.89,1507.16Zm12.06,5.61c-2.78-.6-5.23-3.55-6.77-7.73a30.291,30.291,0,0,1,6.77-.95v8.68Zm0-10.79a32.46,32.46,0,0,0-7.41,1.06,29.943,29.943,0,0,1-1.04-6.99h8.45v5.93Zm0-8.03h-8.45a30.006,30.006,0,0,1,1.07-7.13,32.841,32.841,0,0,0,7.38,1.05v6.08Zm0-8.18a30.507,30.507,0,0,1-6.72-.95c1.54-4.11,3.97-7,6.72-7.6v8.55Zm2.1,27v-8.68a29.888,29.888,0,0,1,6.78.96C1127.27,1509.25,1124.79,1512.17,1122.05,1512.77Zm5.36-1.07a19.156,19.156,0,0,0,3.44-6.03,19.8,19.8,0,0,1,3.25,1.49A17.841,17.841,0,0,1,1127.41,1511.7Zm-2.3-27.1a0.417,0.417,0,0,0,.02.06l0.02,0.06c0.01,0.03.03,0.06,0.04,0.09l3.82,8.08a2.837,2.837,0,0,0,5.13-.01l3.84-8.11c0.02-.04.03-0.09,0.05-0.13a6.979,6.979,0,1,0-13.43-2.66A6.76,6.76,0,0,0,1125.11,1484.6Zm1.98-.72a0.257,0.257,0,0,1-.02-0.05,4.872,4.872,0,1,1,9,.04,0.488,0.488,0,0,0-.03.07l-3.8,8.04a0.758,0.758,0,0,1-.67.42,0.734,0.734,0,0,1-.66-0.41l-3.8-8.05-0.01-.02h0l-0.01-.01-0.97.38Z" transform="translate(-1101 -1475)"/>
</svg>
